<svg id="Layer_1" data-name="Layer 1" xmlns="http://www.w3.org/2000/svg" viewBox="0 0 186 186"><defs><style>.cls-1{fill:#a30000;}.cls-2{font-size:16.47px;font-family:AndaleMono, Andale Mono;}</style></defs><title>Artboard 19</title><path class="cls-1" d="M158.61,87.69,135.93,65l-21,22.65A4.88,4.88,0,0,1,115.5,90a5,5,0,0,1-.34,1.78l21.07,29.9,22.38-22.37A8.21,8.21,0,0,0,158.61,87.69Z"/><path class="cls-1" d="M53.1,93.65a5,5,0,0,1,0-7.3V62L27.39,87.69a8.21,8.21,0,0,0,0,11.62L53.1,125Z"/><path class="cls-1" d="M110.05,95a5,5,0,0,1-1.59-.39l-3,3.24c0,.07,0,.13,0,.2a5,5,0,0,1-1.71,3.74v11.52a5,5,0,1,1-6-.47V102.21a5,5,0,0,1,0-8.42V74.21a5,5,0,1,1,6-.47V92.18l1.74-1.87c0-.11,0-.21,0-.31a5,5,0,0,1,5-5l21.9-23.56L98.81,27.89a8.21,8.21,0,0,0-11.62,0L59.07,56V85.73a5,5,0,0,1,2.09,2.49H74.84a5,5,0,0,1,1.8-2.32V74.1a5,5,0,1,1,6-.21V86.11a4.95,4.95,0,0,1,0,7.78v19.22a5,5,0,1,1-6-.21V94.1a5.67,5.67,0,0,1-.74-.64H60.1a5.12,5.12,0,0,1-1,.81V131l28.12,28.12a8.21,8.21,0,0,0,11.62,0l33-33Z"/><text class="cls-2" transform="translate(16.11 110.15) rotate(45)">&lt;HKGOS/&gt;</text></svg>